<?xml version="1.0" encoding="UTF-8"?>
<svg id="Components" xmlns="http://www.w3.org/2000/svg" width="760.1" height="308.1" viewBox="0 0 760.1 308.1">
  <defs>
    <style>
      .cls-1 {
        fill: #bdff78;
      }
    </style>
  </defs>
  <path class="cls-1" d="M526.1,219.8H134.9c-27.8,0-50.2-22.5-50.2-50.2v-14c0-.8.7-1.5,1.5-1.5h5.5c.8,0,1.5.7,1.5,1.5v14c0,23.1,18.7,41.8,41.8,41.8h391.2c23.1,0,41.8-18.7,41.8-41.8v-9.8c0-.8-.7-1.5-1.5-1.5H178.7c-.8,0-1.5-.7-1.5-1.5v-18.3c0-27.8,22.5-50.2,50.2-50.2h391.2c27.8,0,50.2,22.5,50.2,50.2v14c0,.8-.7,1.5-1.5,1.5h-5.5c-.8,0-1.5-.7-1.5-1.5v-14c0-23.1-18.7-41.8-41.8-41.8H227.4c-23.1,0-41.8,18.7-41.8,41.8v9.8c0,.8.7,1.5,1.5,1.5h387.7c.8,0,1.5.7,1.5,1.5v18.3c0,27.8-22.5,50.2-50.2,50.2Z"/>
</svg>